HIERARCHY
ROOT reference
{
  OFFSET -65.3212 -1.93545 -120.338
  CHANNELS 6 Xposition Yposition Zposition Zrotation Xrotation Yrotation
  JOINT Hips
  {
    OFFSET 0 78.7191 0
    CHANNELS 6 Xposition Yposition Zposition Zrotation Xrotation Yrotation
    JOINT Chest
    {
      OFFSET 0 8.7983 -4.7612
      CHANNELS 6 Xposition Yposition Zposition Zrotation Xrotation Yrotation
      JOINT Chest2
      {
        OFFSET 0 8.0291 0.4195
        CHANNELS 6 Xposition Yposition Zposition Zrotation Xrotation Yrotation
        JOINT Chest3
        {
          OFFSET 0 9.9351 -2.2114
          CHANNELS 6 Xposition Yposition Zposition Zrotation Xrotation Yrotation
          JOINT Neck
          {
            OFFSET 0 22.3885 -0.4656
            CHANNELS 6 Xposition Yposition Zposition Zrotation Xrotation Yrotation
            JOINT Head
            {
              OFFSET -0.0001 12.643 3.4389
              CHANNELS 6 Xposition Yposition Zposition Zrotation Xrotation Yrotation
              End Site
              {
                OFFSET 0.0001 17.6655 0.5274
              }
            }
          }
          JOINT LeftCollar
          {
            OFFSET 2.2603 21.606 7.4023
            CHANNELS 6 Xposition Yposition Zposition Zrotation Xrotation Yrotation
            JOINT LeftShoulder
            {
              OFFSET 13.5163 -1.1332 -5.0146
              CHANNELS 6 Xposition Yposition Zposition Zrotation Xrotation Yrotation
              JOINT LeftElbow
              {
                OFFSET -0.0995 -28.05 -0.2431
                CHANNELS 6 Xposition Yposition Zposition Zrotation Xrotation Yrotation
                JOINT LeftWrist
                {
                  OFFSET 0.0679 -23.3996 -0.1402
                  CHANNELS 6 Xposition Yposition Zposition Zrotation Xrotation Yrotation
                  JOINT LeftFinger1
                  {
                    OFFSET 0.7932 -9.069 2.5189
                    CHANNELS 6 Xposition Yposition Zposition Zrotation Xrotation Yrotation
                    JOINT LeftFinger11
                    {
                      OFFSET -0.8272 -3.3923 0.5977
                      CHANNELS 6 Xposition Yposition Zposition Zrotation Xrotation Yrotation
                      JOINT LeftFinger12
                      {
                        OFFSET -0.5649 -2.3158 0.4082
                        CHANNELS 6 Xposition Yposition Zposition Zrotation Xrotation Yrotation
                        End Site
                        {
                          OFFSET -0.4919 -1.6479 0.2673
                        }
                      }
                    }
                  }
                  JOINT LeftFinger2
                  {
                    OFFSET 0.9159 -9.2044 0.2193
                    CHANNELS 6 Xposition Yposition Zposition Zrotation Xrotation Yrotation
                    JOINT LeftFinger21
                    {
                      OFFSET 0.0117 -4.1944 -0.0248
                      CHANNELS 6 Xposition Yposition Zposition Zrotation Xrotation Yrotation
                      JOINT LeftFinger22
                      {
                        OFFSET 0.0071 -2.3249 -0.0142
                        CHANNELS 6 Xposition Yposition Zposition Zrotation Xrotation Yrotation
                        End Site
                        {
                          OFFSET -0.1475 -2.0882 0.0028
                        }
                      }
                    }
                  }
                  JOINT LeftFinger3
                  {
                    OFFSET 0.6113 -8.7231 -2.0637
                    CHANNELS 6 Xposition Yposition Zposition Zrotation Xrotation Yrotation
                    JOINT LeftFinger31
                    {
                      OFFSET -0.1927 -3.8059 -0.2383
                      CHANNELS 6 Xposition Yposition Zposition Zrotation Xrotation Yrotation
                      JOINT LeftFinger32
                      {
                        OFFSET -0.1091 -2.1688 -0.1362
                        CHANNELS 6 Xposition Yposition Zposition Zrotation Xrotation Yrotation
                        End Site
                        {
                          OFFSET -0.2358 -1.9176 -0.0906
                        }
                      }
                    }
                  }
                  JOINT LeftFinger4
                  {
                    OFFSET -0.6151 -8.0947 -3.5641
                    CHANNELS 6 Xposition Yposition Zposition Zrotation Xrotation Yrotation
                    JOINT LeftFinger41
                    {
                      OFFSET -0.4882 -2.341 -0.6462
                      CHANNELS 6 Xposition Yposition Zposition Zrotation Xrotation Yrotation
                      JOINT LeftFinger42
                      {
                        OFFSET -0.3575 -1.7167 -0.4742
                        CHANNELS 6 Xposition Yposition Zposition Zrotation Xrotation Yrotation
                        End Site
                        {
                          OFFSET -0.4187 -1.5237 -0.3496
                        }
                      }
                    }
                  }
                  JOINT LeftFinger0
                  {
                    OFFSET -1.42 -1.8761 1.4223
                    CHANNELS 6 Xposition Yposition Zposition Zrotation Xrotation Yrotation
                    JOINT LeftFinger01
                    {
                      OFFSET -1.1471 -3.4929 2.6334
                      CHANNELS 6 Xposition Yposition Zposition Zrotation Xrotation Yrotation
                      JOINT LeftFinger02
                      {
                        OFFSET -0.823 -2.3 1.6571
                        CHANNELS 6 Xposition Yposition Zposition Zrotation Xrotation Yrotation
                        End Site
                        {
                          OFFSET -0.5822 -1.6914 1.1582
                        }
                      }
                    }
                  }
                }
              }
            }
          }
          JOINT RightCollar
          {
            OFFSET -2.2603 21.606 7.4023
            CHANNELS 6 Xposition Yposition Zposition Zrotation Xrotation Yrotation
            JOINT RightShoulder
            {
              OFFSET -13.5187 -1.1334 -5.0155
              CHANNELS 6 Xposition Yposition Zposition Zrotation Xrotation Yrotation
              JOINT RightElbow
              {
                OFFSET 0.0994 -28.0499 -0.2431
                CHANNELS 6 Xposition Yposition Zposition Zrotation Xrotation Yrotation
                JOINT RightWrist
                {
                  OFFSET -0.0679 -23.3996 -0.1402
                  CHANNELS 6 Xposition Yposition Zposition Zrotation Xrotation Yrotation
                  JOINT RightFinger1
                  {
                    OFFSET -0.7932 -9.0691 2.5189
                    CHANNELS 6 Xposition Yposition Zposition Zrotation Xrotation Yrotation
                    JOINT RightFinger11
                    {
                      OFFSET 0.8272 -3.3923 0.5977
                      CHANNELS 6 Xposition Yposition Zposition Zrotation Xrotation Yrotation
                      JOINT RightFinger12
                      {
                        OFFSET 0.565 -2.3158 0.4082
                        CHANNELS 6 Xposition Yposition Zposition Zrotation Xrotation Yrotation
                        End Site
                        {
                          OFFSET 0.4919 -1.6479 0.2673
                        }
                      }
                    }
                  }
                  JOINT RightFinger2
                  {
                    OFFSET -0.916 -9.2044 0.2193
                    CHANNELS 6 Xposition Yposition Zposition Zrotation Xrotation Yrotation
                    JOINT RightFinger21
                    {
                      OFFSET -0.0117 -4.1944 -0.0248
                      CHANNELS 6 Xposition Yposition Zposition Zrotation Xrotation Yrotation
                      JOINT RightFinger22
                      {
                        OFFSET -0.0071 -2.3249 -0.0142
                        CHANNELS 6 Xposition Yposition Zposition Zrotation Xrotation Yrotation
                        End Site
                        {
                          OFFSET 0.1475 -2.0882 0.0028
                        }
                      }
                    }
                  }
                  JOINT RightFinger3
                  {
                    OFFSET -0.6113 -8.7231 -2.0637
                    CHANNELS 6 Xposition Yposition Zposition Zrotation Xrotation Yrotation
                    JOINT RightFinger31
                    {
                      OFFSET 0.1927 -3.8059 -0.2383
                      CHANNELS 6 Xposition Yposition Zposition Zrotation Xrotation Yrotation
                      JOINT RightFinger32
                      {
                        OFFSET 0.1091 -2.1688 -0.1362
                        CHANNELS 6 Xposition Yposition Zposition Zrotation Xrotation Yrotation
                        End Site
                        {
                          OFFSET 0.2358 -1.9176 -0.0906
                        }
                      }
                    }
                  }
                  JOINT RightFinger4
                  {
                    OFFSET 0.6151 -8.0947 -3.564
                    CHANNELS 6 Xposition Yposition Zposition Zrotation Xrotation Yrotation
                    JOINT RightFinger41
                    {
                      OFFSET 0.4882 -2.341 -0.6462
                      CHANNELS 6 Xposition Yposition Zposition Zrotation Xrotation Yrotation
                      JOINT RightFinger42
                      {
                        OFFSET 0.3574 -1.7166 -0.4742
                        CHANNELS 6 Xposition Yposition Zposition Zrotation Xrotation Yrotation
                        End Site
                        {
                          OFFSET 0.4187 -1.5237 -0.3496
                        }
                      }
                    }
                  }
                  JOINT RightFinger0
                  {
                    OFFSET 1.4199 -1.8761 1.4221
                    CHANNELS 6 Xposition Yposition Zposition Zrotation Xrotation Yrotation
                    JOINT RightFinger01
                    {
                      OFFSET 1.1472 -3.4929 2.6336
                      CHANNELS 6 Xposition Yposition Zposition Zrotation Xrotation Yrotation
                      JOINT RightFinger02
                      {
                        OFFSET 0.8229 -2.3 1.6571
                        CHANNELS 6 Xposition Yposition Zposition Zrotation Xrotation Yrotation
                        End Site
                        {
                          OFFSET 0.5822 -1.6914 1.1582
                        }
                      }
                    }
                  }
                }
              }
            }
          }
        }
      }
    }
    JOINT RightHip
    {
      OFFSET -9.412 3.9771 -0.7758
      CHANNELS 6 Xposition Yposition Zposition Zrotation Xrotation Yrotation
      JOINT RightKnee
      {
        OFFSET -0.7531 -40.938 0
        CHANNELS 6 Xposition Yposition Zposition Zrotation Xrotation Yrotation
        JOINT RightAnkle
        {
          OFFSET 0 -40.1986 0
          CHANNELS 6 Xposition Yposition Zposition Zrotation Xrotation Yrotation
          JOINT RightToe
          {
            OFFSET 0 -4.4182 9.239
            CHANNELS 6 Xposition Yposition Zposition Zrotation Xrotation Yrotation
            End Site
            {
              OFFSET 0 0 6.1981
            }
          }
        }
      }
    }
    JOINT LeftHip
    {
      OFFSET 9.4119 3.9773 -0.7758
      CHANNELS 6 Xposition Yposition Zposition Zrotation Xrotation Yrotation
      JOINT LeftKnee
      {
        OFFSET 0.7532 -40.9383 0
        CHANNELS 6 Xposition Yposition Zposition Zrotation Xrotation Yrotation
        JOINT LeftAnkle
        {
          OFFSET 0 -40.1986 0
          CHANNELS 6 Xposition Yposition Zposition Zrotation Xrotation Yrotation
          JOINT LeftToe
          {
            OFFSET 0 -4.4182 9.239
            CHANNELS 6 Xposition Yposition Zposition Zrotation Xrotation Yrotation
            End Site
            {
              OFFSET 0 0 6.1981
            }
          }
        }
      }
    }
  }
}
MOTION
Frames:	4
Frame Time:	0.0333333
-26.1898 -0.123055 48.1866 0 0 -0 3.55271e-015 78.7191 0 0.661684 -39.2708 16.2802 7.10543e-015 8.7983 -4.7612 1.49625 -5.19456 -0.465563 0 8.0291 0.4195 2.96833 -10.3994 -0.799093 0 9.9351 -2.2114 2.96835 -10.3995 -0.799094 0 22.3885 -0.4656 0.309916 -1.51334 -1.94384 -0.0001 12.643 3.4389 31.1471 1.67843 9.37427 2.2603 21.606 7.4023 12.79 -1.5996 -29.2437 13.5163 -1.1332 -5.0146 54.7492 -36.4918 33.9208 -0.0995 -28.05 -0.2431 152.469 -60.0152 -141.242 0.0679 -23.3996 -0.1402 -40.0867 4.7488 -51.4102 0.7932 -9.069 2.5189 -3.03463 13.5333 -2.18207 -0.8272 -3.3923 0.5977 -35.3166 20.4569 4.66738 -0.5649 -2.3158 0.4082 -36.3891 20.9688 4.9961 0.9159 -9.2044 0.2193 -1.00374 1.77405 1.17368 0.0117 -4.1944 -0.0248 -42.7843 24.7473 5.54533 0.0071 -2.3249 -0.0142 -8.91301 5.62895 -0.442031 0.6113 -8.7231 -2.0637 -6.58208 6.72807 5.06496 -0.1927 -3.8059 -0.2383 -13.8829 9.68215 -0.672766 -0.1091 -2.1688 -0.1362 -15.2678 10.6419 -0.610126 -0.6151 -8.0947 -3.5641 13.8074 -0.97612 8.79343 -0.4882 -2.341 -0.6462 -17.7367 12.2754 -1.06081 -0.3575 -1.7167 -0.4742 -8.75052 6.03045 -1.00068 -1.42 -1.8761 1.4223 -11.5753 -16.7455 -49.4478 -1.1471 -3.4929 2.6334 -4.53233 0.274118 0.313224 -0.823 -2.3 1.6571 8.53292 10.6974 -3.07896 -2.2603 21.606 7.4023 -26.0807 0.334107 -3.30891 -13.5187 -1.1334 -5.0155 -75.7634 -79.4762 -57.794 0.0994 -28.0499 -0.2431 19.9219 -57.2361 12.0172 -0.0679 -23.3996 -0.1402 -21.1643 -58.3192 -9.10779 -0.7932 -9.0691 2.5189 20.8132 17.2476 -1.64443 0.8272 -3.3923 0.5977 39.2535 11.9924 -4.93904 0.565 -2.3158 0.4082 40.0953 12.1957 -5.1281 -0.916 -9.2044 0.2193 5.73486 3.01957 -1.23916 -0.0117 -4.1944 -0.0248 51.4242 15.4174 -6.16867 -0.0071 -2.3249 -0.0142 14.4546 4.9009 -0.27605 -0.6113 -8.7231 -2.0637 12.0241 6.76839 -5.49468 0.1927 -3.8059 -0.2383 20.2297 7.81133 -0.243674 0.1091 -2.1688 -0.1362 21.8147 8.40371 -0.381272 0.6151 -8.0947 -3.564 -13.6359 2.82537 -6.8671 0.4882 -2.341 -0.6462 21.0307 7.98406 0.323806 0.3574 -1.7166 -0.4742 10.7776 4.08511 0.534255 1.4199 -1.8761 1.4221 14.9861 -7.14837 53.2653 1.1472 -3.4929 2.6336 1.89438 -0.271153 -1.98365 0.8229 -2.3 1.6571 -14.8774 25.955 12.1762 -9.412 3.9771 -0.7758 8.41119 30.8026 -1.71958 -0.7531 -40.938 7.10543e-015 0.496176 0.00175493 3.7645 0 -40.1986 7.10543e-015 11.383 2.99453 -17.3488 0 -4.4182 9.239 7.02342 -2.63101 -0.672699 9.4119 3.9773 -0.7758 13.5525 16.6204 5.85564 0.7532 -40.9383 0 0.369177 3.92796 0.0274908 0 -40.1986 0 -3.52623 13.5365 -6.16425 0 -4.4182 9.239 1.18488 2.71679 -0.102133 
-25.8925 -0.104713 48.262 0 0 -0 3.55271e-015 78.7191 0 0.734692 -39.5996 16.402 0 8.7983 -4.7612 1.58283 -5.28196 -0.521317 0 8.0291 0.4195 3.13728 -10.5762 -0.901005 7.10543e-015 9.9351 -2.2114 3.13729 -10.5762 -0.901002 0 22.3885 -0.4656 0.297297 -1.19198 -1.52675 -0.0001 12.643 3.4389 30.6554 1.73591 9.35387 2.2603 21.606 7.4023 13.1141 -1.57957 -29.0132 13.5163 -1.1332 -5.0146 52.2402 -37.2864 32.4162 -0.0995 -28.05 -0.2431 151.433 -59.4086 -142.017 0.0679 -23.3996 -0.1402 -40.3023 6.44503 -51.9778 0.7932 -9.069 2.5189 -3.03466 13.5333 -2.18202 -0.8272 -3.3923 0.5977 -35.3166 20.4569 4.66739 -0.5649 -2.3158 0.4082 -36.3891 20.9688 4.99605 0.9159 -9.2044 0.2193 -1.00373 1.77409 1.17354 0.0117 -4.1944 -0.0248 -42.7843 24.7473 5.54536 0.0071 -2.3249 -0.0142 -8.913 5.62901 -0.442044 0.6113 -8.7231 -2.0637 -6.58209 6.72807 5.06497 -0.1927 -3.8059 -0.2383 -13.8829 9.68215 -0.672773 -0.1091 -2.1688 -0.1362 -15.2678 10.6419 -0.61006 -0.6151 -8.0947 -3.5641 13.8074 -0.976096 8.79353 -0.4882 -2.341 -0.6462 -17.7367 12.2753 -1.06082 -0.3575 -1.7167 -0.4742 -8.7505 6.0305 -1.00062 -1.42 -1.8761 1.4223 -11.5753 -16.7454 -49.4478 -1.1471 -3.4929 2.6334 -4.53232 0.274141 0.31329 -0.823 -2.3 1.6571 8.53291 10.6974 -3.07895 -2.2603 21.606 7.4023 -26.1971 0.317852 -2.89519 -13.5187 -1.1334 -5.0155 -74.1654 -79.0185 -56.4825 0.0994 -28.0499 -0.2431 20.7642 -57.6231 11.7573 -0.0679 -23.3996 -0.1402 -14.4966 -57.8955 -3.37289 -0.7932 -9.0691 2.5189 20.8132 17.2477 -1.64442 0.8272 -3.3923 0.5977 39.2535 11.9924 -4.93902 0.565 -2.3158 0.4082 40.0953 12.1958 -5.12804 -0.916 -9.2044 0.2193 5.73486 3.0196 -1.23916 -0.0117 -4.1944 -0.0248 51.4242 15.4174 -6.16864 -0.0071 -2.3249 -0.0142 14.4546 4.90093 -0.276197 -0.6113 -8.7231 -2.0637 12.0241 6.7684 -5.49468 0.1927 -3.8059 -0.2383 20.2297 7.81131 -0.243667 0.1091 -2.1688 -0.1362 21.8147 8.40372 -0.381429 0.6151 -8.0947 -3.564 -13.6359 2.82537 -6.8671 0.4882 -2.341 -0.6462 21.0307 7.98405 0.323886 0.3574 -1.7166 -0.4742 10.7777 4.08504 0.534355 1.4199 -1.8761 1.4221 14.9861 -7.14835 53.2653 1.1472 -3.4929 2.6336 1.89438 -0.27117 -1.98366 0.8229 -2.3 1.6571 -14.8775 25.955 12.1762 -9.412 3.9771 -0.7758 8.20307 31.2329 -1.47506 -0.7531 -40.938 0 0.657051 0.00156269 3.63859 -7.10543e-015 -40.1986 0 11.3832 2.98596 -17.3832 0 -4.4182 9.239 6.97047 -1.99704 -0.745314 9.4119 3.9773 -0.7758 13.2224 17.7281 4.30783 0.7532 -40.9383 -7.10543e-015 0.349451 4.79896 0.0231452 0 -40.1986 0 -3.58375 13.96 -5.90807 0 -4.4182 9.239 1.0184 3.77989 -0.120951 
-25.4701 -0.111038 48.4444 0 0 -0 3.55271e-015 78.7191 0 1.06775 -40.0419 16.4606 -7.10543e-015 8.7983 -4.7612 1.64582 -5.35264 -0.558657 7.10543e-015 8.0291 0.4195 3.26044 -10.7189 -0.968278 7.10543e-015 9.9351 -2.2114 3.26045 -10.7189 -0.968286 0 22.3885 -0.4656 0.293979 -0.801032 -0.982002 -0.0001 12.643 3.4389 30.3816 1.68168 9.50642 2.2603 21.606 7.4023 13.5911 -1.54521 -28.6188 13.5163 -1.1332 -5.0146 49.4802 -37.9601 31.0215 -0.0995 -28.05 -0.2431 150.852 -58.9545 -142.589 0.0679 -23.3996 -0.1402 -40.5886 7.82943 -52.3234 0.7932 -9.069 2.5189 -3.03461 13.5333 -2.18218 -0.8272 -3.3923 0.5977 -35.3166 20.4569 4.6674 -0.5649 -2.3158 0.4082 -36.3891 20.9688 4.99607 0.9159 -9.2044 0.2193 -1.00371 1.77408 1.17356 0.0117 -4.1944 -0.0248 -42.7843 24.7473 5.54542 0.0071 -2.3249 -0.0142 -8.91302 5.62897 -0.442052 0.6113 -8.7231 -2.0637 -6.58211 6.72807 5.065 -0.1927 -3.8059 -0.2383 -13.8829 9.68214 -0.672783 -0.1091 -2.1688 -0.1362 -15.2679 10.6419 -0.610169 -0.6151 -8.0947 -3.5641 13.8074 -0.976131 8.79328 -0.4882 -2.341 -0.6462 -17.7367 12.2754 -1.0608 -0.3575 -1.7167 -0.4742 -8.75053 6.03041 -1.00074 -1.42 -1.8761 1.4223 -11.5753 -16.7455 -49.4478 -1.1471 -3.4929 2.6334 -4.53231 0.274129 0.313169 -0.823 -2.3 1.6571 8.53292 10.6974 -3.07891 -2.2603 21.606 7.4023 -26.2706 0.299835 -2.41778 -13.5187 -1.1334 -5.0155 -72.2757 -78.7623 -54.9294 0.0994 -28.0499 -0.2431 21.4952 -57.8944 11.4916 -0.0679 -23.3996 -0.1402 -8.35495 -57.2048 1.87244 -0.7932 -9.0691 2.5189 20.8131 17.2477 -1.64434 0.8272 -3.3923 0.5977 39.2535 11.9924 -4.93902 0.565 -2.3158 0.4082 40.0953 12.1957 -5.12814 -0.916 -9.2044 0.2193 5.73484 3.01959 -1.23916 -0.0117 -4.1944 -0.0248 51.4242 15.4174 -6.16866 -0.0071 -2.3249 -0.0142 14.4546 4.90089 -0.276183 -0.6113 -8.7231 -2.0637 12.0241 6.76839 -5.49466 0.1927 -3.8059 -0.2383 20.2297 7.81131 -0.243683 0.1091 -2.1688 -0.1362 21.8147 8.40367 -0.381392 0.6151 -8.0947 -3.564 -13.6359 2.82535 -6.86706 0.4882 -2.341 -0.6462 21.0306 7.98407 0.323738 0.3574 -1.7166 -0.4742 10.7776 4.08518 0.53415 1.4199 -1.8761 1.4221 14.9861 -7.14841 53.2652 1.1472 -3.4929 2.6336 1.89436 -0.271167 -1.98366 0.8229 -2.3 1.6571 -14.8775 25.9549 12.1763 -9.412 3.9771 -0.7758 7.62866 31.0897 -1.27993 -0.7531 -40.938 -7.10543e-015 0.828254 1.75156 3.53176 0 -40.1986 7.10543e-015 11.066 2.39703 -16.8178 7.10543e-015 -4.4182 9.239 6.89187 -1.55699 -0.781198 9.4119 3.9773 -0.7758 12.7055 19.0587 3.70339 0.7532 -40.9383 0 0.342761 4.8013 0.0599868 0 -40.1986 0 -2.8388 13.6066 -6.34115 0 -4.4182 9.239 0.953549 4.08033 -0.124228 
-24.9643 -0.102707 48.6769 0 0 -0 3.55271e-015 78.7191 0 1.60001 -40.4114 16.4203 -7.10543e-015 8.7983 -4.7612 1.70907 -5.41173 -0.53671 0 8.0291 0.4195 3.38982 -10.837 -0.916376 0 9.9351 -2.2114 3.38983 -10.837 -0.916375 7.10543e-015 22.3885 -0.4656 0.2881 -0.564958 -0.560607 -0.0001 12.643 3.4389 29.9518 1.60109 9.65282 2.2603 21.606 7.4023 13.9066 -1.53677 -28.517 13.5163 -1.1332 -5.0146 47.2277 -38.0316 29.6367 -0.0995 -28.05 -0.2431 150.198 -58.264 -142.872 0.0679 -23.3996 -0.1402 -40.5991 9.07514 -52.9988 0.7932 -9.069 2.5189 -3.03462 13.5333 -2.18217 -0.8272 -3.3923 0.5977 -35.3167 20.4569 4.66741 -0.5649 -2.3158 0.4082 -36.3891 20.9688 4.99611 0.9159 -9.2044 0.2193 -1.00373 1.77408 1.17358 0.0117 -4.1944 -0.0248 -42.7843 24.7473 5.54529 0.0071 -2.3249 -0.0142 -8.91302 5.62901 -0.442043 0.6113 -8.7231 -2.0637 -6.58214 6.72805 5.06507 -0.1927 -3.8059 -0.2383 -13.8829 9.68214 -0.672778 -0.1091 -2.1688 -0.1362 -15.2679 10.6419 -0.610165 -0.6151 -8.0947 -3.5641 13.8074 -0.97612 8.79331 -0.4882 -2.341 -0.6462 -17.7367 12.2754 -1.06081 -0.3575 -1.7167 -0.4742 -8.75055 6.0304 -1.00073 -1.42 -1.8761 1.4223 -11.5753 -16.7455 -49.4478 -1.1471 -3.4929 2.6334 -4.5323 0.274133 0.31317 -0.823 -2.3 1.6571 8.53291 10.6974 -3.07888 -2.2603 21.606 7.4023 -26.0746 0.289596 -2.05472 -13.5187 -1.1334 -5.0155 -70.4497 -78.8684 -53.4425 0.0994 -28.0499 -0.2431 22.0326 -58.0292 11.2185 -0.0679 -23.3996 -0.1402 -2.31322 -56.2754 6.9564 -0.7932 -9.0691 2.5189 20.8132 17.2476 -1.64446 0.8272 -3.3923 0.5977 39.2535 11.9924 -4.93904 0.565 -2.3158 0.4082 40.0953 12.1957 -5.12815 -0.916 -9.2044 0.2193 5.73485 3.01959 -1.23915 -0.0117 -4.1944 -0.0248 51.4242 15.4174 -6.16867 -0.0071 -2.3249 -0.0142 14.4546 4.90092 -0.276186 -0.6113 -8.7231 -2.0637 12.0241 6.7684 -5.49465 0.1927 -3.8059 -0.2383 20.2297 7.81131 -0.243679 0.1091 -2.1688 -0.1362 21.8148 8.4037 -0.381558 0.6151 -8.0947 -3.564 -13.6359 2.82534 -6.86699 0.4882 -2.341 -0.6462 21.0307 7.98408 0.323763 0.3574 -1.7166 -0.4742 10.7776 4.08517 0.534167 1.4199 -1.8761 1.4221 14.9861 -7.1484 53.2652 1.1472 -3.4929 2.6336 1.89437 -0.271166 -1.98364 0.8229 -2.3 1.6571 -14.8774 25.9551 12.1761 -9.412 3.9771 -0.7758 6.73418 30.6235 -0.240326 -0.7531 -40.938 0 1.00174 4.18775 3.42198 -7.10543e-015 -40.1986 -7.10543e-015 10.5579 1.35782 -16.7902 0 -4.4182 9.239 6.85023 -0.865125 -0.860757 9.4119 3.9773 -0.7758 11.9181 19.9557 3.94542 0.7532 -40.9383 -7.10543e-015 0.346687 4.59914 0.0850891 7.10543e-015 -40.1986 -1.42109e-014 -2.37508 13.331 -5.0351 3.55271e-015 -4.4182 9.239 0.877339 4.4695 -0.128424 
